<?xml version="1.0" encoding="UTF-8" standalone="no"?>
<!-- Generator: IcoMoon.io -->

<svg
   width="32"
   height="32"
   viewBox="0 0 32 32"
   fill="#000000"
   version="1.1"
   id="svg23"
   sodipodi:docname="arrow_back.svg"
   inkscape:version="1.1.1 (3bf5ae0d25, 2021-09-20)"
   xmlns:inkscape="http://www.inkscape.org/namespaces/inkscape"
   xmlns:sodipodi="http://sodipodi.sourceforge.net/DTD/sodipodi-0.dtd"
   xmlns="http://www.w3.org/2000/svg"
   xmlns:svg="http://www.w3.org/2000/svg">
  <defs
     id="defs27" />
  <sodipodi:namedview
     id="namedview25"
     pagecolor="#ffffff"
     bordercolor="#666666"
     borderopacity="1.0"
     inkscape:pageshadow="2"
     inkscape:pageopacity="0.0"
     inkscape:pagecheckerboard="0"
     showgrid="false"
     inkscape:snap-bbox="true"
     inkscape:bbox-nodes="false"
     inkscape:snap-bbox-edge-midpoints="true"
     inkscape:bbox-paths="true"
     inkscape:snap-bbox-midpoints="true"
     inkscape:snap-nodes="false"
     inkscape:zoom="27.798135"
     inkscape:cx="15.558598"
     inkscape:cy="16.062228"
     inkscape:window-width="1600"
     inkscape:window-height="837"
     inkscape:window-x="1592"
     inkscape:window-y="-8"
     inkscape:window-maximized="1"
     inkscape:current-layer="g21" />
  <g
     id="g21"
     transform="matrix(0.96899875,0,0,-1,0.12398951,32.0015)">
    <path
       d="m 4.292,15.708 6,6 c 0.39,0.39 1.024,0.39 1.414,0 0.39,-0.39 0.39,-1.024 0,-1.414 L 7.414,16 22.074249,16.143895 c 7.042191,0.06912 6.074249,0.05866 6.074249,5.02145 0,0.552 0.373751,0.856105 0.925751,0.856105 0.552,0 1.089263,-0.304297 1.074249,-0.856105 -0.185623,-6.822234 0.483766,-6.937451 -8.074249,-7.02145 L 7.414,14 11.706,9.708 c 0.39,-0.39 0.39,-1.024 0,-1.414 -0.39,-0.39 -1.024,-0.39 -1.414,0 l -6,6 c -0.39,0.39 -0.39,1.022 0,1.414 z"
       id="path19"
       sodipodi:nodetypes="cssccssssscssssc" />
  </g>
</svg>
